PathFileType	4	(X/Y/Z)	./resultDataOpenSim/trcMotMarkerGrf/sub10/qtm-12-02.trc
DataRate	CameraRate	NumFrames	NumMarkers	Units	OrigDataRate	OrigDataStartFrame	OrigNumFrames
250.000000	250.000000	12	24	m	250.000000	173	461
Frame#	Time	L.Toe.Tip			R.Toe.Tip			L.Ankle.Lat			R.Ankle.Lat			L.Ankle.Med			R.Ankle.Med			L.Heel			R.Heel			L.Knee.Lat			R.Knee.Lat			L.Knee.Med			R.Knee.Med			L.Thigh.Upper			R.Thigh.Upper			L.ASIS			R.ASIS			V.Sacral			L.Acromium			R.Acromium			C7			L.Elbow			R.Elbow			L.Wrist.Lat			R.Wrist.Lat
		X1	Y1	Z1	X2	Y2	Z2	X3	Y3	Z3	X4	Y4	Z4	X5	Y5	Z5	X6	Y6	Z6	X7	Y7	Z7	X8	Y8	Z8	X9	Y9	Z9	X10	Y10	Z10	X11	Y11	Z11	X12	Y12	Z12	X13	Y13	Z13	X14	Y14	Z14	X15	Y15	Z15	X16	Y16	Z16	X17	Y17	Z17	X18	Y18	Z18	X19	Y19	Z19	X20	Y20	Z20	X21	Y21	Z21	X22	Y22	Z22	X23	Y23	Z23	X24	Y24	Z24

173	0.688	-0.00096181344	0.017239387	-0.090595044	-0.74874981	0.066384917	0.038741485	-0.13543555	0.04287212	-0.12589257	-0.77731051	0.20968749	0.078199604	-0.13574273	0.065176321	-0.04329223	-0.73444441	0.19402827	0.0033817981	-0.20186898	0.010638104	-0.088825385	-0.81059486	0.23919413	0.023757822	-0.11255239	0.42885764	-0.15416667	-0.45030124	0.41222433	0.11987235	-0.11023966	0.4165687	-0.036048192	-0.39545457	0.38060211	0.0026542562	-0.232243	0.79652074	-0.22068193	-0.36566969	0.80450896	0.14928666	-0.21243483	0.89749645	-0.13214827	-0.26390219	0.89503248	0.090620798	-0.43544226	0.91456317	-0.07925416	-0.33691168	1.3569425	-0.21997359	-0.34636684	1.3762688	0.10269774	-0.42236972	1.3866282	-0.067557868	-0.47528102	1.0447591	-0.23193119	-0.3733068	1.0198703	0.18587695	-0.42755973	0.81683886	-0.30573777	-0.13849795	0.95290272	0.24606406
174	0.692	-0.00087173752	0.017169346	-0.090558997	-0.73829684	0.071902294	0.043292869	-0.13530675	0.042893469	-0.12569201	-0.76518421	0.21639659	0.078907929	-0.13561934	0.065082898	-0.04308301	-0.72222509	0.19900492	0.0044433496	-0.20184625	0.01075633	-0.088577609	-0.79812782	0.24561668	0.024349769	-0.10942855	0.42824604	-0.1544076	-0.4345073	0.41033665	0.12179011	-0.10587397	0.41623485	-0.036395414	-0.37880307	0.37814912	0.0041454906	-0.22741289	0.79720432	-0.2212499	-0.357324	0.80418158	0.14890792	-0.20659567	0.89882823	-0.13266577	-0.25714689	0.8958594	0.089944213	-0.4301097	0.91508542	-0.078398311	-0.32866276	1.3577135	-0.22030841	-0.33916422	1.3769467	0.10221596	-0.41451721	1.3876483	-0.068088827	-0.46678259	1.0452776	-0.2326261	-0.36879785	1.0209508	0.18527578	-0.41805913	0.81748857	-0.30624091	-0.13500917	0.95213397	0.24696392
175	0.696	-0.000790344	0.01710963	-0.090523654	-0.72692858	0.077635571	0.048369704	-0.13517616	0.042905056	-0.12547456	-0.75262357	0.22289137	0.079560425	-0.13531667	0.064969577	-0.042752064	-0.70954692	0.20390308	0.0054765831	-0.20183233	0.010852916	-0.088308488	-0.78550567	0.25200155	0.02514742	-0.1067549	0.42750398	-0.15469345	-0.41852026	0.40851144	0.12369039	-0.10210856	0.41562484	-0.036503078	-0.36220159	0.37629067	0.0055236402	-0.22280225	0.79784885	-0.2218876	-0.34906643	0.803823	0.14848329	-0.20082833	0.90014771	-0.13333231	-0.25051658	0.89673676	0.089378396	-0.42483203	0.91560864	-0.077546292	-0.32027639	1.3584886	-0.22063405	-0.33202348	1.3775847	0.10172966	-0.4067124	1.3886979	-0.06863158	-0.45824803	1.0458039	-0.23340085	-0.36434895	1.022044	0.18476818	-0.40835704	0.81818901	-0.30688129	-0.13159572	0.95134761	0.24812133
176	0.7	-0.00070881695	0.017051568	-0.090493817	-0.71462815	0.083439777	0.05378244	-0.13502247	0.042886471	-0.12526568	-0.7393745	0.22912634	0.080243315	-0.13479399	0.064858444	-0.042311182	-0.69633857	0.20861462	0.006438	-0.20182632	0.01091783	-0.088051833	-0.77246424	0.2581536	0.025931258	-0.1044427	0.42666129	-0.15501754	-0.4023938	0.40681324	0.12551639	-0.098805664	0.41481139	-0.036355223	-0.34579668	0.37509068	0.0067316223	-0.21838003	0.79844911	-0.22258766	-0.34090632	0.80348646	0.14798294	-0.19511942	0.90143591	-0.13414464	-0.24400067	0.89766787	0.088921359	-0.41959475	0.91613146	-0.076700006	-0.31180769	1.3592537	-0.22094919	-0.32496407	1.3781954	0.10122067	-0.39896746	1.3897742	-0.069180893	-0.44968609	1.0463221	-0.23421922	-0.359983	1.0231663	0.1843189	-0.39848062	0.81893	-0.30763537	-0.12825743	0.95054586	0.24952068
177	0.704	-0.00063500962	0.016993788	-0.090470863	-0.70144918	0.089179038	0.05932533	-0.13485703	0.04282717	-0.12509525	-0.72532379	0.2351571	0.080959939	-0.13419147	0.064748523	-0.041852685	-0.68258283	0.21305959	0.0072987079	-0.20183645	0.010942597	-0.087838184	-0.75868091	0.2638098	0.026304942	-0.10241878	0.42575507	-0.15536752	-0.38621896	0.4053451	0.12720614	-0.095978964	0.41384917	-0.036070596	-0.32967871	0.37453962	0.0077270662	-0.21409334	0.7990155	-0.22334546	-0.33271762	0.80322643	0.14724829	-0.189456	0.90269313	-0.13509526	-0.23758559	0.89865897	0.088567253	-0.41422819	0.91667098	-0.075834164	-0.30329211	1.3600062	-0.22124472	-0.31795543	1.378803	0.10070304	-0.39129087	1.3908686	-0.069734079	-0.4411175	1.046835	-0.23508657	-0.35568725	1.0243078	0.18388815	-0.38844656	0.81971356	-0.30850054	-0.12499852	0.94974542	0.25114227
178	0.708	-0.00058168806	0.016941066	-0.09045658	-0.6874814	0.094777649	0.064812982	-0.13470944	0.042733854	-0.1249856	-0.71070426	0.24097129	0.081615001	-0.13371183	0.064622568	-0.041492214	-0.66838192	0.21722442	0.0080973993	-0.2018721	0.010927014	-0.0876867	-0.74412899	0.26884447	0.026104862	-0.10061691	0.42482734	-0.15570895	-0.37007829	0.40421112	0.12874812	-0.093772184	0.41276717	-0.035843217	-0.31385907	0.37455417	0.0085008277	-0.20988594	0.79956705	-0.22414618	-0.32451968	0.80310371	0.1462714	-0.18382901	0.90393086	-0.13617432	-0.23126862	0.89971774	0.088310975	-0.40836163	0.91725787	-0.074887976	-0.29473745	1.3607571	-0.2215083	-0.31094557	1.3794341	0.10021448	-0.38368113	1.3919751	-0.070293834	-0.43254567	1.0473493	-0.23604839	-0.35141134	1.025448	0.1834789	-0.37823733	0.82054877	-0.30950398	-0.12182062	0.94897312	0.25296959
179	0.712	-0.00055521199	0.016898382	-0.090449904	-0.6728293	0.10021771	0.070109305	-0.13460174	0.042620882	-0.12494036	-0.69579487	0.24651533	0.082145523	-0.13344425	0.064474175	-0.041273188	-0.65386682	0.2211154	0.008931395	-0.20193781	0.010878714	-0.087602195	-0.72909438	0.27328436	0.025504402	-0.098954009	0.42391462	-0.155984	-0.35400778	0.40347359	0.13017171	-0.092153688	0.41161309	-0.035748813	-0.29827398	0.37500803	0.0090894138	-0.20571126	0.80012044	-0.22495645	-0.31658338	0.80310295	0.14539339	-0.17822688	0.90515886	-0.13736777	-0.22506499	0.90084	0.088152728	-0.40168518	0.91790006	-0.073806786	-0.28615482	1.3615154	-0.22173097	-0.30391945	1.3801048	0.099776524	-0.37613083	1.3930901	-0.070868853	-0.42395165	1.0478633	-0.23716035	-0.3471119	1.0265911	0.18313221	-0.36781036	0.82143926	-0.31067385	-0.11872892	0.94825097	0.25499063
180	0.716	-0.00055243402	0.01686579	-0.090444357	-0.65760339	0.10549831	0.075142159	-0.13453484	0.042498065	-0.12494573	-0.68064883	0.25176606	0.08261408	-0.13334406	0.064317943	-0.041152287	-0.63908919	0.2247	0.0098802117	-0.20203048	0.010808249	-0.087576874	-0.7138881	0.27719756	0.024798374	-0.097320295	0.42304438	-0.15613963	-0.33799946	0.40314318	0.13150117	-0.090823594	0.41047754	-0.035683683	-0.2828143	0.37577781	0.0095750785	-0.20153426	0.8006912	-0.22573819	-0.30910537	0.80311218	0.14499134	-0.17262434	0.9063814	-0.13864813	-0.21899584	0.90199632	0.088097838	-0.39444817	0.91853684	-0.072623851	-0.27756402	1.3622737	-0.22191324	-0.29690857	1.3808147	0.099386379	-0.36863675	1.3942101	-0.071482813	-0.41531923	1.0483667	-0.23845787	-0.34278072	1.0277619	0.18287261	-0.35714337	0.82238323	-0.31200826	-0.11573687	0.94758673	0.25719627
181	0.72	-0.00056453527	0.016837826	-0.090433185	-0.64189899	0.11060112	0.079882205	-0.13449257	0.042368058	-0.12498166	-0.66521807	0.25670284	0.083155384	-0.13335017	0.064171373	-0.041066248	-0.62402984	0.22792873	0.010956634	-0.2021414	0.010724983	-0.087592485	-0.69865868	0.28064241	0.024232652	-0.095614331	0.42224129	-0.15616771	-0.32202602	0.40320544	0.13274342	-0.089544544	0.40944012	-0.035543807	-0.26740262	0.37676772	0.010050865	-0.19733653	0.80129344	-0.22646455	-0.30191935	0.80304277	0.14503631	-0.1670064	0.90759366	-0.13998068	-0.21306081	0.9031471	0.088145672	-0.38739363	0.91907219	-0.071454848	-0.26897903	1.3630154	-0.2220616	-0.28995292	1.3815548	0.099038806	-0.36120245	1.3953291	-0.072185763	-0.40664764	1.048848	-0.23993838	-0.3384403	1.0289792	0.18269321	-0.34626049	0.82337745	-0.31348249	-0.11285055	0.94697905	0.2595769
182	0.724	-0.00058509863	0.016809082	-0.090415357	-0.62578035	0.11546963	0.084303736	-0.13445559	0.042232296	-0.12503248	-0.649537	0.26125512	0.083859125	-0.13343818	0.06404082	-0.040981479	-0.60868279	0.23079967	0.012101835	-0.2022603	0.010634943	-0.087626694	-0.68341195	0.28365265	0.023956017	-0.09378146	0.42154041	-0.15611187	-0.3060746	0.40365103	0.13389991	-0.08834533	0.4085259	-0.035352269	-0.25203166	0.37792174	0.010576675	-0.19311846	0.80193359	-0.2271225	-0.29470323	0.80290787	0.14520608	-0.16141945	0.90877735	-0.14134972	-0.20723221	0.90426775	0.088281834	-0.38100905	0.91947116	-0.070380967	-0.26040011	1.3637339	-0.22217855	-0.28307782	1.3823235	0.098734368	-0.3538306	1.3964379	-0.073021239	-0.39793954	1.0493068	-0.2415512	-0.33413416	1.0302493	0.18258858	-0.33524049	0.82441064	-0.31505158	-0.11005942	0.94642923	0.26211827
183	0.728	-0.00061441748	0.016779954	-0.090394987	-0.60925966	0.12002271	0.088378061	-0.13441536	0.04209602	-0.12509187	-0.6337514	0.26528408	0.084696124	-0.13357627	0.063925637	-0.040905798	-0.59310206	0.23337104	0.013230813	-0.20237817	0.010541229	-0.087662308	-0.6681175	0.28623675	0.024030361	-0.091813366	0.42099302	-0.15603282	-0.29017722	0.40448893	0.13498397	-0.087377936	0.40772681	-0.035205342	-0.23671735	0.37922705	0.011163775	-0.18888702	0.80260522	-0.22770824	-0.28730558	0.80277208	0.14528213	-0.15595611	0.9099085	-0.14276506	-0.20148052	0.90534667	0.088485029	-0.37518535	0.91977976	-0.069391144	-0.25183133	1.364438	-0.22225487	-0.27629985	1.3831303	0.098474064	-0.34651268	1.3975344	-0.073948543	-0.38919302	1.0497567	-0.24321984	-0.32991405	1.0315745	0.18257429	-0.32419676	0.82546301	-0.31664483	-0.1073614	0.94594361	0.26480084
184	0.732	-0.00065438405	0.016754889	-0.090378199	-0.59227765	0.1241977	0.092093456	-0.13437666	0.041966407	-0.12516114	-0.61798728	0.26866951	0.085594573	-0.13369597	0.063827611	-0.040869993	-0.57737211	0.23571308	0.014320254	-0.20248885	0.010447134	-0.087692453	-0.65279021	0.28840777	0.024468281	-0.089744937	0.4206432	-0.15598116	-0.27439219	0.40573261	0.13602638	-0.086711103	0.40704379	-0.03517346	-0.22146319	0.38069806	0.011785919	-0.18464081	0.80328953	-0.22822041	-0.27979326	0.80269289	0.14527573	-0.15066535	0.9109743	-0.14423627	-0.19578697	0.90637084	0.088734144	-0.36958667	0.92005935	-0.06843629	-0.24330269	1.3651397	-0.22226992	-0.2696301	1.3839833	0.098257268	-0.33922925	1.3986287	-0.074840477	-0.38041229	1.0502057	-0.24489948	-0.32580888	1.0329517	0.18266962	-0.31318999	0.82652613	-0.31821271	-0.10479958	0.94552529	0.26760587
